<svg width="155" height="35" viewBox="0 0 155 35" fill="none" xmlns="http://www.w3.org/2000/svg">
<path fill-rule="evenodd" clip-rule="evenodd" d="M0 7H6.01795V25.0012H0V7ZM8.02734 7H14.0035V31H8.02734V7Z" fill="white"/>
<path d="M77.1562 19.3896C77.1562 17.3224 77.7835 15.6446 79.0082 14.3862C80.2628 13.0979 81.8758 12.4688 83.8472 12.4688C85.7589 12.4688 87.2226 13.038 88.2382 14.1765C89.2836 15.285 89.8512 16.6333 90.0005 18.1912L87.82 18.341C87.6109 16.064 86.207 14.4761 83.8173 14.4761C81.3978 14.4761 79.6952 16.3936 79.6952 19.3896C79.6952 22.3857 81.3978 24.3032 83.8173 24.3032C86.207 24.3032 87.6109 22.6254 87.82 20.3484L90.0005 20.5581C89.8512 22.146 89.2836 23.4942 88.2382 24.6028C87.2226 25.7113 85.7589 26.2806 83.8472 26.2806C81.8758 26.2806 80.2628 25.6514 79.0082 24.393C77.7835 23.1347 77.1562 21.4569 77.1562 19.3896Z" fill="white"/>
<path d="M72.0703 9.86219V7.0459H74.6392V9.86219H72.0703ZM72.1301 12.8283H74.6093V25.921H72.1301V12.8283Z" fill="white"/>
<path d="M58.8257 23.1944L58.288 25.9209H56.4062V7.04572H58.8854V15.5845C59.453 13.9966 61.1556 12.4686 63.5751 12.4686C65.4868 12.4686 66.9504 13.1577 67.9959 14.5059C69.0413 15.8541 69.5491 17.472 69.5491 19.3895C69.5491 21.3069 69.0413 22.9248 67.9959 24.273C66.9504 25.6212 65.4868 26.2804 63.5452 26.2804C61.1556 26.2804 59.4231 24.8423 58.8257 23.1944ZM58.8257 19V19.749C58.8257 22.6252 60.6478 24.303 63.0075 24.303C65.5465 24.303 66.9803 22.3855 66.9803 19.3895C66.9803 16.3934 65.5465 14.4759 63.0075 14.4759C60.6478 14.4759 58.8257 16.1537 58.8257 19Z" fill="white"/>
<path d="M50.5172 20.3482V12.8281H52.9964V25.9209H50.5172V23.6139C49.8899 25.1719 48.1873 26.2804 46.2457 26.2804C44.5431 26.2804 43.3483 25.7711 42.6314 24.7824C41.9444 23.7637 41.5859 22.5054 41.5859 20.9774V12.8281H44.0652V20.7377C44.0652 22.8949 45.0509 24.333 47.0821 24.333C49.0237 24.333 50.5172 22.7451 50.5172 20.3482Z" fill="white"/>
<path d="M35.8668 30.9542V23.1944C35.2694 24.7823 33.5967 26.2804 31.1772 26.2804C29.2356 26.2804 27.772 25.6212 26.7265 24.273C25.7109 22.9248 25.2031 21.3069 25.2031 19.3895C25.2031 17.472 25.7109 15.8541 26.7265 14.5059C27.772 13.1577 29.2356 12.4686 31.1772 12.4686C33.5967 12.4686 35.2694 13.9966 35.8668 15.5845V12.8281H38.3461V30.9542H35.8668ZM35.8967 19.749V19C35.8967 16.1537 34.1045 14.4759 31.7447 14.4759C29.2058 14.4759 27.7421 16.3934 27.7421 19.3895C27.7421 22.3855 29.2058 24.303 31.7447 24.303C34.1045 24.303 35.8967 22.6252 35.8967 19.749Z" fill="white"/>
<path d="M143.928 21.658C143.98 22.5073 144.309 23.192 144.916 23.712C145.522 24.232 146.424 24.492 147.62 24.492C148.712 24.492 149.466 24.3273 149.882 23.998C150.298 23.6513 150.506 23.1487 150.506 22.49C150.506 21.9527 150.341 21.5367 150.012 21.242C149.7 20.93 149.206 20.722 148.53 20.618L145.306 20.124C144.179 19.9507 143.312 19.5607 142.706 18.954C142.116 18.3473 141.822 17.55 141.822 16.562C141.822 15.314 142.298 14.3347 143.252 13.624C144.205 12.9133 145.531 12.558 147.23 12.558C148.876 12.558 150.202 12.9393 151.208 13.702C152.213 14.4473 152.759 15.444 152.846 16.692H150.246C150.176 16.0507 149.882 15.522 149.362 15.106C148.842 14.69 148.105 14.482 147.152 14.482C146.198 14.482 145.488 14.6553 145.02 15.002C144.569 15.3313 144.344 15.7733 144.344 16.328C144.344 16.7613 144.474 17.1167 144.734 17.394C145.011 17.6713 145.479 17.862 146.138 17.966L148.946 18.382C150.471 18.6073 151.537 19.058 152.144 19.734C152.75 20.3927 153.054 21.268 153.054 22.36C153.054 23.712 152.603 24.726 151.702 25.402C150.8 26.078 149.414 26.416 147.542 26.416C145.496 26.416 143.98 25.9827 142.992 25.116C142.004 24.232 141.51 23.0793 141.51 21.658H143.928Z" fill="#61F0FE"/>
<path d="M127.379 19.5C127.379 18.1827 127.63 17.004 128.133 15.964C128.653 14.924 129.407 14.1007 130.395 13.494C131.4 12.8873 132.614 12.584 134.035 12.584C135.994 12.584 137.502 13.0693 138.559 14.04C139.634 14.9933 140.206 16.2673 140.275 17.862H137.831C137.71 16.9087 137.354 16.1373 136.765 15.548C136.176 14.9587 135.3 14.664 134.139 14.664C132.804 14.664 131.782 15.0453 131.071 15.808C130.36 16.5533 130.005 17.784 130.005 19.5C130.005 21.2333 130.352 22.4727 131.045 23.218C131.738 23.9633 132.752 24.336 134.087 24.336C135.283 24.336 136.193 24.0327 136.817 23.426C137.458 22.802 137.84 21.9873 137.961 20.982H140.405C140.37 21.97 140.102 22.88 139.599 23.712C139.114 24.5267 138.403 25.1853 137.467 25.688C136.531 26.1733 135.404 26.416 134.087 26.416C132.666 26.416 131.452 26.1127 130.447 25.506C129.442 24.8993 128.679 24.076 128.159 23.036C127.639 21.996 127.379 20.8173 127.379 19.5Z" fill="#61F0FE"/>
<path d="M119.297 26.416C117.841 26.416 116.61 26.1127 115.605 25.506C114.599 24.8993 113.845 24.076 113.343 23.036C112.84 21.9787 112.589 20.7913 112.589 19.474C112.589 18.174 112.84 17.004 113.343 15.964C113.845 14.924 114.599 14.1007 115.605 13.494C116.61 12.8873 117.841 12.584 119.297 12.584C120.753 12.584 121.983 12.8873 122.989 13.494C123.994 14.1007 124.748 14.9327 125.251 15.99C125.753 17.03 126.005 18.1913 126.005 19.474C126.005 20.774 125.753 21.9527 125.251 23.01C124.748 24.05 123.994 24.882 122.989 25.506C121.983 26.1127 120.753 26.416 119.297 26.416ZM115.215 19.5C115.215 21.216 115.535 22.4553 116.177 23.218C116.835 23.9633 117.875 24.336 119.297 24.336C120.718 24.336 121.749 23.9633 122.391 23.218C123.049 22.4553 123.379 21.216 123.379 19.5C123.379 17.784 123.049 16.5533 122.391 15.808C121.749 15.0453 120.718 14.664 119.297 14.664C117.875 14.664 116.835 15.0453 116.177 15.808C115.535 16.5533 115.215 17.784 115.215 19.5Z" fill="#61F0FE"/>
<path d="M102.994 12.584C105.282 12.584 106.885 13.468 107.804 15.236V7.8H110.404V26H107.804V23.764C106.885 25.532 105.282 26.416 102.994 26.416C101.001 26.416 99.4927 25.7747 98.47 24.492C97.4473 23.192 96.936 21.528 96.936 19.5C96.936 17.472 97.4473 15.8167 98.47 14.534C99.4927 13.234 101.001 12.584 102.994 12.584ZM99.562 19.5C99.562 21.1467 99.8653 22.3687 100.472 23.166C101.096 23.946 102.119 24.336 103.54 24.336C106.383 24.336 107.804 22.724 107.804 19.5C107.804 16.276 106.383 14.664 103.54 14.664C102.119 14.664 101.096 15.0627 100.472 15.86C99.8653 16.64 99.562 17.8533 99.562 19.5Z" fill="#61F0FE"/>
</svg>
